<svg width="32" height="32" viewBox="0 0 32 32" fill="none" xmlns="http://www.w3.org/2000/svg">
<path d="M16 11.0005C16 8.25045 18.3125 5.96295 21.0625 6.00045C22.0256 6.01157 22.9649 6.3006 23.7676 6.8328C24.5704 7.365 25.2023 8.11771 25.5875 9.00045H30L25.9625 13.038C25.7019 17.0937 23.9066 20.8979 20.9415 23.6773C17.9764 26.4566 14.0641 28.0025 10 28.0005C6 28.0005 5 26.5005 5 26.5005C5 26.5005 9 25.0005 11 22.0005C11 22.0005 3 18.0005 5 7.00045C5 7.00045 10 12.0005 16 13.0005V11.0005Z" stroke="#F9FAFA" stroke-width="2" stroke-linecap="round" stroke-linejoin="round"/>
</svg>
